{"title":"One True Love Paget Brewster Criminal Minds + David Hasselhoff","uid":11284755,"size":869599929,"categoryP":"video","categoryS":"movies","magnet":"?xt=urn:btih:f965ecae8eece92180132defd65dde35a9fd5ad0&amp;dn=One+True+Love+Paget+Brewster+Criminal+Minds+%2B+David+Hasselhoff+&amp;tr=udp%3A%2F%2Ftracker.openbittorrent.com%3A80&amp;tr=udp%3A%2F%2Fopen.demonii.com%3A1337&amp;tr=udp%3A%2F%2Ftracker.coppersurfer.tk%3A6969&amp;tr=udp%3A%2F%2Fexodus.desync.com%3A6969","seeders":2,"leechers":0,"uploader":"Liebe_Ist","files":-1,"time":1414264094,"description":"One.True.Love.2000.VHSRip.x264-Liebe_Ist.mkv\n\nGeneral\nFormat                         : Matroska\nFormat version                 : Version 2\nFile size                      : 829 MiB\nDuration                       : 1h 27mn\nOverall bit rate               : 1 328 Kbps\n\nVideo\nFormat                         : AVC\nFormat/Info                    : Advanced Video Codec\nFormat profile                 : &lt;a class=&quot;__cf_email__&quot; href=&quot;/cdn-cgi/l/email-protection&quot; data-cfemail=&quot;105d71797e505c243e20&quot;&gt;[email&amp;#160;protected]&lt;/a&gt;&lt;script cf-hash='f9e31' type=&quot;text/javascript&quot;&gt;\n/* &lt;![CDATA[ */!function(){try{var t=&quot;currentScript&quot;in document?document.currentScript:function(){for(var t=document.getElementsByTagName(&quot;script&quot;),e=t.length;e--;)if(t[e].getAttribute(&quot;cf-hash&quot;))return t[e]}();if(t&amp;&amp;t.previousSibling){var e,r,n,i,c=t.previousSibling,a=c.getAttribute(&quot;data-cfemail&quot;);if(a){for(e=&quot;&quot;,r=parseInt(a.substr(0,2),16),n=2;a.length-n;n+=2)i=parseInt(a.substr(n,2),16)^r,e+=String.fromCharCode(i);e=document.createTextNode(e),c.parentNode.replaceChild(e,c)}}}catch(u){}}();/* ]]&gt; */&lt;/script&gt;\nFormat settings, CABAC         : Yes\nFormat settings, ReFrames      : 4 frames\nCodec ID                       : V_MPEG4/ISO/AVC\nDuration                       : 1h 27mn\nBit rate                       : 1 174 Kbps\nWidth                          : 720 pixels\nHeight                         : 542 pixels\nDisplay aspect ratio           : 4:3\nOriginal display aspect ratio  : 4:3\nFrame rate mode                : Constant\nFrame rate                     : 30.000 fps\nColor space                    : YUV\nChroma subsampling             : 4:2:0\nBit depth                      : 8 bits\nScan type                      : Progressive\nBits/(Pixel*Frame)             : 0.100\nStream size                    : 733 MiB (88%)\nWriting library                : x264 core 130 r2273 b3065e6\nLanguage                       : English\nDefault                        : Yes\nForced                         : No\nColor primaries                : BT.601 NTSC\nTransfer characteristics       : BT.709\nMatrix coefficients            : BT.601\n\nAudio\nID                             : 2\nFormat                         : AC-3\nFormat/Info                    : Audio Coding 3\nMode extension                 : CM (complete main)\nFormat settings, Endianness    : Big\nCodec ID                       : A_AC3\nDuration                       : 1h 27mn\nBit rate mode                  : Constant\nBit rate                       : 128 Kbps\nChannel count                  : 2 channels\nChannel positions              : Front: L R\nSampling rate                  : 32.0 KHz\nBit depth                      : 16 bits\nCompression mode               : Lossy\nStream size                    : 79.9 MiB (10%)\nDefault                        : Yes\nForced                         : No","torrent":{"xt":"urn:btih:f965ecae8eece92180132defd65dde35a9fd5ad0","amp;dn":"One+True+Love+Paget+Brewster+Criminal+Minds+%2B+David+Hasselhoff+","amp;tr":["udp%3A%2F%2Ftracker.openbittorrent.com%3A80","udp%3A%2F%2Fopen.demonii.com%3A1337","udp%3A%2F%2Ftracker.coppersurfer.tk%3A6969","udp%3A%2F%2Fexodus.desync.com%3A6969"],"infoHash":"f965ecae8eece92180132defd65dde35a9fd5ad0","infoHashBuffer":{"type":"Buffer","data":[249,101,236,174,142,236,233,33,128,19,45,239,214,93,222,53,169,253,90,208]},"announce":[],"urlList":[]}}